Coordinates
version=1
nRows=21
nColumns=22
inDegrees=yes

Units are S.I. units (second, meters, Newtons, ...)
If the header above contains a line with 'inDegrees', this indicates whether rotational values are in degrees (yes) or radians (no).

endheader
time	pelvis_tilt	pelvis_list	pelvis_rotation	pelvis_tx	pelvis_ty	pelvis_tz	hip_flexion_r	hip_adduction_r	hip_rotation_r	knee_angle_r	ankle_angle_r	subtalar_angle_r	hip_flexion_l	hip_adduction_l	hip_rotation_l	knee_angle_l	ankle_angle_l	subtalar_angle_l	lumbar_extension	lumbar_bending	lumbar_rotation
      3.61000000	      0.60811210	      1.71277780	    158.12948183	      0.24727814	      1.04175755	     -0.90210482	     -8.15360341	     -3.08853795	    -11.07778072	    -21.92616913	     18.53194909	      7.94830541	     25.67365480	     -1.84381963	    -26.32371015	    -10.93196004	      8.83648842	     -4.90631332	     -5.69056106	     -4.02156072	      3.67485103
      3.62000000	      0.48609544	      1.62641919	    158.38063476	      0.23530500	      1.04118454	     -0.90358933	     -8.61562026	     -3.40122340	    -10.88065335	    -22.53756773	     17.94624472	      8.99659809	     25.45913256	     -1.85955134	    -27.13882678	    -11.65850471	      8.68518761	     -5.43534107	     -5.55972201	     -4.20202741	      3.77984929
      3.63000000	      0.33451797	      1.52467467	    158.64936931	      0.22305086	      1.04080203	     -0.90493960	     -9.06062254	     -3.74737101	    -10.64708512	    -23.23313950	     17.21262293	     10.13319816	     25.19387129	     -1.83928295	    -27.95025379	    -12.53658079	      8.34932337	     -6.03119963	     -5.43479559	     -4.41372471	      3.88899528
      3.64000000	      0.17481561	      1.39138703	    158.92052714	      0.21060063	      1.04061852	     -0.90612311	     -9.43194592	     -4.13749425	    -10.34997809	    -24.04854640	     16.32561744	     11.29539587	     24.88311462	     -1.75663633	    -28.73722093	    -13.43778023	      7.79438966	     -6.63096010	     -5.29567513	     -4.66047349	      4.03126244
      3.65000000	      0.02876234	      1.22223936	    159.23989379	      0.19800216	      1.04066472	     -0.90702901	     -9.69694634	     -4.55792838	    -10.00871340	    -24.99532256	     15.20927364	     12.54201117	     24.52574189	     -1.55173683	    -29.31855785	    -14.21283008	      7.00734849	     -7.25746731	     -5.12853849	     -4.92885710	      4.13135072
      3.66000000	     -0.08917314	      0.98571706	    159.55904781	      0.18537516	      1.04090234	     -0.90768482	     -9.77459158	     -5.05216119	     -9.61250759	    -26.15104420	     13.93168898	     13.73796222	     24.15468756	     -1.21553485	    -29.74680146	    -14.82980924	      6.09542477	     -7.84148107	     -4.91168408	     -5.25219830	      4.27168572
      3.67000000	     -0.16470553	      0.73534686	    159.95215617	      0.17274703	      1.04137673	     -0.90798240	     -9.69134866	     -5.53469822	     -9.16709035	    -27.47492800	     12.39282058	     14.96422205	     23.76914347	     -0.74818132	    -29.79774807	    -15.24307534	      5.10084603	     -8.46239888	     -4.66583114	     -5.55744786	      4.33423814
      3.68000000	     -0.19604766	      0.45624130	    160.37775725	      0.16020322	      1.04203410	     -0.90796014	     -9.39513732	     -6.03669897	     -8.67330152	    -29.02893206	     10.64389695	     16.09463003	     23.38598161	     -0.16252637	    -29.52579912	    -15.48094986	      4.09170234	     -9.10261654	     -4.38625766	     -5.86568240	      4.39919371
      3.69000000	     -0.19080879	      0.17517629	    160.84779368	      0.14776705	      1.04285697	     -0.90762792	     -8.90615410	     -6.52411642	     -8.11881380	    -30.79770330	      8.68237206	     17.10956548	     23.00256147	      0.50539585	    -28.94770524	    -15.58858044	      3.12723492	     -9.82312468	     -4.09468996	     -6.15002399	      4.43147218
      3.70000000	     -0.16155287	     -0.09734331	    161.36023923	      0.13545575	      1.04379597	     -0.90702268	     -8.23664199	     -6.99203798	     -7.52128501	    -32.78268636	      6.53954231	     17.97123231	     22.61480312	      1.22307378	    -28.13483185	    -15.61947954	      2.27344076	    -10.64408488	     -3.81001683	     -6.40862392	      4.45017825
      3.71000000	     -0.12675524	     -0.32883627	    161.90002790	      0.12329316	      1.04484469	     -0.90622268	     -7.42730596	     -7.39371950	     -6.80975506	    -34.94496494	      4.23035387	     18.68531623	     22.20644322	      1.92469129	    -27.22091525	    -15.62839295	      1.57937467	    -11.57422381	     -3.56389237	     -6.61318751	      4.42351028
      3.72000000	     -0.09556724	     -0.57884351	    162.48632214	      0.11126697	      1.04589940	     -0.90521957	     -6.46956338	     -7.79981348	     -6.07224758	    -37.29465446	      1.87527974	     19.18179754	     21.77956752	      2.67262688	    -26.21281433	    -15.61028488	      1.10826120	    -12.42749099	     -3.34407218	     -6.83978208	      4.36444943
      3.73000000	     -0.08913135	     -0.78862638	    163.09013305	      0.09944776	      1.04699169	     -0.90409814	     -5.41864595	     -8.13132468	     -5.22056324	    -39.76637622	     -0.52396543	     19.55368897	     21.31742892	      3.37215775	    -25.24209723	    -15.62874426	      0.84992726	    -13.24693623	     -3.19794507	     -7.02754722	      4.29076976
      3.74000000	     -0.10732419	     -1.01591723	    163.72592901	      0.08781534	      1.04806498	     -0.90288133	     -4.27780539	     -8.43229911	     -4.28618364	    -42.32731241	     -2.84695217	     19.79050018	     20.80658592	      4.09518390	    -24.29679464	    -15.62027785	      0.80894613	    -13.89955657	     -3.10181531	     -7.24544693	      4.14817892
      3.75000000	     -0.16190319	     -1.27146545	    164.39568051	      0.07637832	      1.04912206	     -0.90156681	     -3.08286101	     -8.70856353	     -3.28751020	    -44.91423673	     -5.02831300	     19.93027133	     20.23112001	      4.85526508	    -23.39038033	    -15.57395772	      0.93825548	    -14.35554439	     -3.06567022	     -7.50643772	      3.95947351
      3.76000000	     -0.25190795	     -1.53438507	    165.09400196	      0.06514667	      1.05018176	     -0.90018036	     -1.86859715	     -8.92463373	     -2.22252816	    -47.45476806	     -6.99857881	     20.02723694	     19.58239648	      5.62556930	    -22.55086966	    -15.48320062	      1.17831391	    -14.68534218	     -3.09244233	     -7.78419747	      3.72428427
      3.77000000	     -0.38801177	     -1.79686630	    165.83194025	      0.05410576	      1.05127762	     -0.89870631	     -0.67989990	     -9.07785646	     -1.13712871	    -49.88337747	     -8.68441348	     20.07920178	     18.84151606	      6.40467948	    -21.77060391	    -15.33556450	      1.46765272	    -14.89567357	     -3.19376797	     -8.06865295	      3.42916148
      3.78000000	     -0.49011851	     -2.07527520	    166.59533449	      0.04325525	      1.05227160	     -0.89714490	      0.55967501	     -9.16908243	     -0.02310873	    -52.17858624	     -9.87801884	     20.15705670	     18.08369861	      7.19655676	    -20.98565151	    -15.10255438	      1.83018273	    -15.14168365	     -3.26058819	     -8.35248162	      3.11732928
      3.79000000	     -0.63956672	     -2.32247774	    167.41798632	      0.03255675	      1.05334497	     -0.89544030	      1.71290953	     -9.19247859	      1.02637608	    -54.26530970	    -10.66944981	     20.13339451	     17.22443650	      7.97261626	    -20.19908948	    -14.81209782	      2.16935449	    -15.28339227	     -3.40385672	     -8.60117868	      2.74999584
      3.80000000	     -0.76033579	     -2.56708084	    168.29248631	      0.02201124	      1.05435867	     -0.89354143	      2.86547749	     -9.17847876	      2.01592730	    -56.14854724	    -10.92631465	     20.04923689	     16.34629698	      8.74981343	    -19.36010292	    -14.45054648	      2.48784254	    -15.43520021	     -3.51980458	     -8.81640488	      2.34621381
      3.81000000	     -0.85870623	     -2.77501747	    169.22725878	      0.01160601	      1.05534655	     -0.89143551	      3.98994966	     -9.11246795	      2.91766837	    -57.80369322	    -10.74462754	     19.86874603	     15.45202092	      9.48612414	    -18.46812722	    -14.05580043	      2.77166038	    -15.58975247	     -3.62236469	     -8.96288247	      1.89612128
